{"title":"It.Follows.2014.720p.WEBRip.KORSUB.XviD.MP3-RARBG","uid":11889434,"size":2619151831,"categoryP":"video","categoryS":"movies","magnet":"?xt=urn:btih:ff9864204fd60e1f00c46ca4977fc66fccf26dbf&amp;dn=It.Follows.2014.720p.WEBRip.KORSUB.XviD.MP3-RARBG&amp;tr=udp%3A%2F%2Ftracker.openbittorrent.com%3A80&amp;tr=udp%3A%2F%2Fopen.demonii.com%3A1337&amp;tr=udp%3A%2F%2Ftracker.coppersurfer.tk%3A6969&amp;tr=udp%3A%2F%2Fexodus.desync.com%3A6969","seeders":1,"leechers":0,"uploader":"vickey1992","files":4,"time":1430938994,"description":"Format                                   : AVI\nFormat/Info                              : Audio Video Interleave\nFormat profile                           : OpenDML\nFile size                                : 2.44 GiB\nDuration                                 : 1h 40mn\nOverall bit rate                         : 3 483 Kbps\nMovie name                               : RARBG.COM - It.Follows.2014.720p.WEBRip.KORSUB.XviD.MP3-RARBG\nWriting library                          : VirtualDub build 35491/release\nComment                                  : RARBG.COM - It.Follows.2014.720p.WEBRip.KORSUB.XviD.MP3-RARBG\n\nVideo\nID                                       : 0\nFormat                                   : MPEG-4 Visual\nFormat profile                           : Simple@L5\nFormat settings, BVOP                    : No\nFormat settings, QPel                    : No\nFormat settings, GMC                     : No warppoints\nFormat settings, Matrix                  : Default (H.263)\nCodec ID                                 : XVID\nCodec ID/Hint                            : XviD\nDuration                                 : 1h 40mn\nBit rate                                 : 3 275 Kbps\nWidth                                    : 1 280 pixels\nHeight                                   : 536 pixels\nDisplay aspect ratio                     : 2.40:1\nFrame rate                               : 29.970 fps\nColor space                              : YUV\nChroma subsampling                       : 4:2:0\nBit depth                                : 8 bits\nScan type                                : Progressive\nCompression mode                         : Lossy\nBits/(Pixel*Frame)                       : 0.159\nStream size                              : 2.29 GiB (94%)\nWriting library                          : Lavc56.13.100\n\nAudio\nID                                       : 1\nFormat                                   : MPEG Audio\nFormat version                           : Version 1\nFormat profile                           : Layer 3\nMode                                     : Joint stereo\nMode extension                           : MS Stereo\nCodec ID                                 : 55\nCodec ID/Hint                            : MP3\nDuration                                 : 1h 40mn\nBit rate mode                            : Constant\nBit rate                                 : 192 Kbps\nChannel(s)                               : 2 channels\nSampling rate                            : 44.1 KHz\nCompression mode                         : Lossy\nStream size                              : 138 MiB (6%)\nAlignment                                : Aligned on interleaves\nInterleave, duration                     : 26 ms (0.78 video frame)\nInterleave, preload duration             : 522 ms\nWriting library                          : LAME3.99.5\nNotes:\nHardcoded Korean subtitles.\nGreetz to all!","torrent":{"xt":"urn:btih:ff9864204fd60e1f00c46ca4977fc66fccf26dbf","amp;dn":"It.Follows.2014.720p.WEBRip.KORSUB.XviD.MP3-RARBG","amp;tr":["udp%3A%2F%2Ftracker.openbittorrent.com%3A80","udp%3A%2F%2Fopen.demonii.com%3A1337","udp%3A%2F%2Ftracker.coppersurfer.tk%3A6969","udp%3A%2F%2Fexodus.desync.com%3A6969"],"infoHash":"ff9864204fd60e1f00c46ca4977fc66fccf26dbf","infoHashBuffer":{"type":"Buffer","data":[255,152,100,32,79,214,14,31,0,196,108,164,151,127,198,111,204,242,109,191]},"announce":[],"urlList":[]}}